<svg xmlns="http://www.w3.org/2000/svg" viewBox="0 0 256 255" width="47" height="47">
  <g fill="none">
    <path fill="#FFFFFF" d="M126.916.036c-12.661.057-25.155 1.143-35.673 3.073-31.626 5.541-37.567 17.145-37.567 38.732v19.65h55.892v6.537H48.99c-21.402 0-39.25 13.284-43.959 36.141-5.399 25.529-5.657 41.538 0 67.498 4.884 21.934 16.575 36.141 37.567 36.141h19.65c21.26 0 34.82-17.626 34.82-38.732v-19.65c0-21.495-18.954-38.732-40.252-38.732H38.268c-6.308 0-11.138-5.073-11.138-11.382 0-6.248 4.83-11.382 11.138-11.382h66.03c20.128 0 36.23-15.488 40.252-36.141 5.399-25.529 5.714-41.537 0-67.498C178.93 8.15 167.268.036 126.916.036zm-19.65 22.764c6.308 0 11.138 5.073 11.138 11.382s-5.073 11.382-11.138 11.382c-6.308 0-11.138-5.073-11.138-11.382s4.83-11.382 11.138-11.382zM85.474 202.3c12.628.057 25.122 1.143 35.64 3.073 31.626 5.541 37.567 17.145 37.567 38.732v19.65h-55.892v6.537h60.578c21.402 0 39.25-13.284 43.959-36.141 5.399-25.529 5.657-41.538 0-67.498-4.884-21.934-16.575-36.141-37.567-36.141h-19.65c-21.26 0-34.82 17.626-34.82 38.732v19.65c0 21.495 18.954 38.732 40.252 38.732h36.101c6.308 0 11.138 5.073 11.138 11.382 0 6.248-4.83 11.382-11.138 11.382h-66.03c-20.128 0-36.23 15.488-40.252 36.141-5.399 25.529-5.714 41.537 0 67.498 6.308 25.399 17.27 33.512 57.622 33.512 30.815 0 60.757-7.276 67.498-36.141 5.399-25.529 5.714-41.537 0-67.498-4.884-21.934-16.575-36.141-37.567-36.141h-36.101c-21.26 0-34.82-17.626-34.82-38.732v-19.65c0-21.495 18.954-38.732 40.252-38.732h66.03c6.308 0 11.138-5.073 11.138-11.382 0-6.248-4.83-11.382-11.138-11.382h-66.03c-20.128 0-36.23-15.488-40.252-36.141-5.399-25.529-5.714-41.537 0-67.498C130.12 24.9 141.782 16.786 181.914 16.786c30.815 0 60.757-7.276 67.498-36.141C261.547 26.049 241.336 8.15 181.914 8.15c-25.398 0-47.973-4.663-67.498-8.114C126.916.036 119.042.036 119.042.036H96.934z"/>
  </g>
</svg>
