<svg xmlns="http://www.w3.org/2000/svg" viewBox="0 0 256 255" width="75" height="75">
  <defs>
    <linearGradient id="a" x1="12.959%" x2="79.639%" y1="12.039%" y2="78.201%">
      <stop offset="0%" stop-color="#FFDE57"/>
      <stop offset="100%" stop-color="#FFCC32"/>
    </linearGradient>
    <linearGradient id="b" x1="19.128%" x2="90.742%" y1="20.579%" y2="88.429%">
      <stop offset="0%" stop-color="#387EB8"/>
      <stop offset="100%" stop-color="#366994"/>
    </linearGradient>
  </defs>
  <path fill="url(#a)" d="M102.1.002C74.2.12 64.6 14.58 64.6 36.04v16.77h37.5V54.4h55.5c9.6 0 13.1 4.41 13.1 9.89v16.76H64.6c-26.1 0-39.8 11.64-39.8 34.82v27.4c0 23.18 14.7 34.82 39.8 34.82h24.6v-16.77c0-9.88 8-18.82 18.4-18.82h55.5c22.8 0 37.6-10.73 37.6-34.81V36.04C197.7 12.86 179.5-.19 153.6.002H102.1zM135 20.6c6.4 0 11.6 5.3 11.6 11.78 0 6.49-5.2 11.77-11.6 11.77-6.4 0-11.6-5.28-11.6-11.77 0-6.48 5.2-11.78 11.6-11.78z"/>
  <path fill="url(#b)" d="M153.7 255.05c27.9-.12 37.5-14.58 37.5-36.04v-16.77h-37.5v2.41H98.2c-9.6 0-13.1-4.42-13.1-9.9v-16.76h55.6c26.1 0 39.8-11.64 39.8-34.82v-27.4c0-23.18-14.7-34.82-39.8-34.82h-24.7v16.77c0 9.88-8 18.82-18.4 18.82H61.9c-22.8 0-37.6 10.73-37.6 34.81v54.8C24.2 242.19 42.4 255.19 68.3 255h51.6zM121 234.46c-6.4 0-11.6-5.29-11.6-11.77 0-6.48 5.2-11.77 11.6-11.77 6.4 0 11.6 5.29 11.6 11.77 0 6.48-5.2 11.77-11.6 11.77z"/>
</svg>
