<svg xmlns="http://www.w3.org/2000/svg" viewBox="0 0 24 24" height="75" width="75" fill="#FFD700">
  <!-- Plate -->
  <!-- <circle cx="12" cy="12" r="9" stroke="#FFD700" stroke-width="2" fill="none"/> -->
  
  <!-- Fork -->
  <path d="M6 4c0 .6-.4 1-1 1s-1-.4-1-1v7c0 .6.4 1 1 1s1-.4 1-1V9h1v2c0 .6.4 1 1 1s1-.4 1-1V9h1v2c0 .6.4 1 1 1s1-.4 1-1V4c0-.6-.4-1-1-1s-1 .4-1 1v2h-1V4c0-.6-.4-1-1-1s-1 .4-1 1v2h-1V4c0-.6-.4-1-1-1s-1 .4-1 1zm12 0c-.6 0-1 .4-1 1v7c0 .6.4 1 1 1s1-.4 1-1V4c0-.6-.4-1-1-1z"/>
  
  <!-- Knife -->
  <path d="M17 4c-.6 0-1 .4-1 1v7c0 .6.4 1 1 1s1-.4 1-1V4c0-.6-.4-1-1-1z"/>
</svg>
